<?xml version="1.0" encoding="utf-8"?>
<!-- Generator: Adobe Illustrator 23.0.3, SVG Export Plug-In . SVG Version: 6.00 Build 0)  -->
<svg version="1.1" id="Layer_1" xmlns="http://www.w3.org/2000/svg" xmlns:xlink="http://www.w3.org/1999/xlink" x="0px" y="0px"
	 viewBox="0 0 612 792" style="enable-background:new 0 0 612 792;" xml:space="preserve">
<style type="text/css">
	.st0{fill:#FFFFFF;stroke:#000000;stroke-miterlimit:10;}
	.st1{fill:#FFFFFF;stroke:#D1D3D4;stroke-miterlimit:10;}
</style>
<path class="st0" d="M575.29,766.13H36.71c-18.71,0-34.02-15.31-34.02-34.02v-581.1C2.69,132.3,18,117,36.71,117h538.58
	c18.71,0,34.02,15.31,34.02,34.02v581.1C609.31,750.82,594,766.13,575.29,766.13z"/>
<rect x="36.58" y="151.01" class="st1" width="538.58" height="581.1"/>
<g>
	<rect x="209.5" y="505.34" class="st0" width="141.73" height="226.77"/>
	<circle class="st0" cx="223.67" cy="717.94" r="4.25"/>
	<circle class="st0" cx="337.06" cy="717.94" r="4.25"/>
	<circle class="st0" cx="337.06" cy="519.52" r="4.25"/>
	<circle class="st0" cx="223.67" cy="519.52" r="4.25"/>
</g>
<g>
	
		<rect x="372.49" y="529.44" transform="matrix(-1.795890e-10 1 -1 -1.795890e-10 1104.6018 149.8614)" class="st0" width="209.76" height="195.59"/>
	<circle class="st0" cx="565.24" cy="627.23" r="4.25"/>
	<circle class="st0" cx="423.51" cy="627.23" r="4.25"/>
</g>
<g>
	
		<rect x="412.3" y="328.18" transform="matrix(8.979224e-11 -1 1 8.979224e-11 79.8708 903.4678)" class="st0" width="158.74" height="167.24"/>
	<circle class="st0" cx="566.79" cy="479.83" r="4.25"/>
	<circle class="st0" cx="566.79" cy="343.77" r="4.25"/>
	<circle class="st0" cx="425.06" cy="479.83" r="4.25"/>
	<circle class="st0" cx="425.06" cy="343.77" r="4.25"/>
</g>
<g>
	
		<rect x="230.88" y="328.18" transform="matrix(8.979224e-11 -1 1 8.979224e-11 -101.5465 722.0505)" class="st0" width="158.74" height="167.24"/>
	<circle class="st0" cx="385.37" cy="479.83" r="4.25"/>
	<circle class="st0" cx="385.37" cy="343.77" r="4.25"/>
	<circle class="st0" cx="243.64" cy="479.83" r="4.25"/>
	<circle class="st0" cx="243.64" cy="343.77" r="4.25"/>
</g>
<g>
	<rect x="390.91" y="165.18" class="st1" width="158.74" height="158.74"/>
	<polygon class="st0" points="487.1,236.05 487.1,165.18 447.41,165.18 447.41,236.05 390.91,236.05 390.91,275.74 447.41,275.74 
		487.1,275.74 487.29,275.74 487.29,236.05 	"/>
	<circle class="st0" cx="473.12" cy="196.37" r="5.67"/>
	<circle class="st0" cx="427.76" cy="255.8" r="5.67"/>
	<circle class="st0" cx="473.12" cy="230.38" r="5.67"/>
</g>
<g>
	
		<rect x="-4.52" y="532.27" transform="matrix(-1.346889e-10 1 -1 -1.346889e-10 727.5939 495.6881)" class="st0" width="240.94" height="158.74"/>
	<circle class="st0" cx="46.5" cy="501.09" r="4.25"/>
	<circle class="st0" cx="46.5" cy="665.5" r="4.25"/>
	<circle class="st0" cx="185.4" cy="501.09" r="4.25"/>
	<circle class="st0" cx="185.4" cy="665.5" r="4.25"/>
</g>
<g>
	
		<rect x="47.92" y="210.75" transform="matrix(-1.836970e-16 1 -1 -1.836970e-16 369.2192 174.1638)" class="st0" width="99.21" height="121.89"/>
	<circle class="st0" cx="42.31" cy="228.46" r="4.25"/>
	<circle class="st0" cx="140.11" cy="228.46" r="4.25"/>
	<circle class="st0" cx="140.05" cy="314.92" r="4.25"/>
</g>
<g>
	<rect x="36.58" y="403.29" class="st0" width="175.75" height="73.7"/>
	<circle class="st0" cx="50.76" cy="440.14" r="4.25"/>
	<circle class="st0" cx="198.28" cy="440.14" r="4.25"/>
</g>
<g>
	<path class="st0" d="M356.9,236.05H226.5c-3.12,0-5.67-2.55-5.67-5.67v-73.7c0-3.12,2.55-5.67,5.67-5.67H356.9
		c3.12,0,5.67,2.55,5.67,5.67v73.7C362.57,233.5,360.02,236.05,356.9,236.05z"/>
	<path class="st0" d="M356.9,207.7L356.9,207.7c-2.34,0-4.25-1.91-4.25-4.25v-19.84c0-2.34,1.91-4.25,4.25-4.25l0,0
		c2.34,0,4.25,1.91,4.25,4.25v19.84C361.15,205.79,359.24,207.7,356.9,207.7z"/>
	<path class="st0" d="M243.51,207.7L243.51,207.7c-2.34,0-4.25-1.91-4.25-4.25v-19.84c0-2.34,1.91-4.25,4.25-4.25h0
		c2.34,0,4.25,1.91,4.25,4.25v19.84C247.76,205.79,245.85,207.7,243.51,207.7z"/>
</g>
<g>
	<path class="st0" d="M151.08,96.96H20.69c-3.12,0-5.67-2.55-5.67-5.67v-73.7c0-3.12,2.55-5.67,5.67-5.67h130.39
		c3.12,0,5.67,2.55,5.67,5.67v73.7C156.75,94.4,154.2,96.96,151.08,96.96z"/>
	<circle class="st0" cx="151.08" cy="54.44" r="4.25"/>
	<circle class="st0" cx="37.7" cy="54.44" r="4.25"/>
</g>
<g>
	<rect x="101.78" y="335.47" class="st0" width="11.34" height="5.67"/>
	<rect x="36.58" y="340.93" class="st0" width="85.04" height="42.52"/>
	<rect x="101.78" y="383.45" class="st0" width="11.34" height="5.67"/>
</g>
<circle class="st0" cx="36.58" cy="151.01" r="5.67"/>
<circle class="st0" cx="575.29" cy="151.01" r="5.67"/>
</svg>
